<svg t="1609911560515" width="13" height="13" viewBox="0 0 1024 1024" version="1.1" xmlns="http://www.w3.org/2000/svg" p-id="16730" xmlns:xlink="http://www.w3.org/1999/xlink" width="200" height="200"><defs><style type="text/css"></style></defs><path d="M213.333333 298.624a42.666667 42.666667 0 0 1 42.666667-42.666667h512a42.666667 42.666667 0 1 1 0 85.333334H256a42.666667 42.666667 0 0 1-42.666667-42.666667z m0 213.333333a42.666667 42.666667 0 0 1 42.666667-42.666666h512a42.666667 42.666667 0 0 1 0 85.333333H256a42.666667 42.666667 0 0 1-42.666667-42.666667z m256 213.333334a42.666667 42.666667 0 0 1 42.666667-42.666667h256a42.666667 42.666667 0 0 1 0 85.333333h-256a42.666667 42.666667 0 0 1-42.666667-42.666666z" p-id="16731"></path></svg>