<svg t="1609911596705" width="13" height="13" viewBox="0 0 1024 1024" version="1.1" xmlns="http://www.w3.org/2000/svg" p-id="18212" xmlns:xlink="http://www.w3.org/1999/xlink" width="200" height="200"><defs><style type="text/css"></style></defs><path d="M170.666667 256a42.666667 42.666667 0 0 1 42.666666-42.666667h597.333334a42.666667 42.666667 0 1 1 0 85.333334H213.333333a42.666667 42.666667 0 0 1-42.666666-42.666667zM256 768a42.666667 42.666667 0 0 1 42.666667-42.666667h426.666666a42.666667 42.666667 0 1 1 0 85.333334H298.666667a42.666667 42.666667 0 0 1-42.666667-42.666667zM128 469.333333a42.666667 42.666667 0 1 0 0 85.333334h768a42.666667 42.666667 0 1 0 0-85.333334H128z" p-id="18213"></path></svg>