<svg t="1607925160350" class="icon" width="16" height="16" viewBox="0 0 1027 1024" version="1.1" xmlns="http://www.w3.org/2000/svg" p-id="11576" xmlns:xlink="http://www.w3.org/1999/xlink" width="200.5859375" height="200"><defs><style type="text/css"></style></defs><path d="M886.635395 930.512546h-745.971512C63.009717 930.425132 0.08242 867.497834 0 789.848663v-558.367219c0.08242-77.652917 63.009717-140.580215 140.663883-140.662634h745.971512c77.654166 0.08242 140.577717 63.009717 140.663883 140.662634v558.367219c-0.086166 77.649171-63.010966 140.576468-140.663883 140.663883m0-76.726322c35.303024-0.029971 63.912585-28.64078 63.933815-63.937561v-558.367219c-0.022478-35.301776-28.632039-63.911337-63.933815-63.936312h-745.971512c-35.303024 0.024976-63.912585 28.634537-63.937561 63.936312v558.367219c0.024976 35.298029 28.634537 63.90759 63.937561 63.937561m745.971512 76.726322" p-id="11577"></path><path d="M834.205346 408.462361H193.092683c-21.190556 0-38.366283-17.175727-38.366283-38.366283 0-21.185561 17.175727-38.360039 38.366283-38.360039h641.113912c21.188059 0 38.363785 17.174478 38.363785 38.360039-0.001249 21.190556-17.176976 38.366283-38.365034 38.366283z m0 0M444.594576 669.493698H193.092683a38.363785 38.363785 0 1 1 0-76.727571h251.501893c21.190556 0 38.366283 17.175727 38.366283 38.367532 0 21.184312-17.175727 38.360039-38.366283 38.360039z m0 0M681.869112 673.253776h-97.642146c-5.321054 0-15.09401-13.892683-17.755161-25.761093-1.899395-8.482966-2.136663-13.65042-0.62439-23.102439 1.921873-12.009522 13.058498-27.864039 18.379551-27.864039h97.642146c8.226966 0 23.217327 16.663727 23.217327 37.854283 0 21.185561-14.990361 38.873288-23.217327 38.873288z m0 0" p-id="11578"></path></svg>