<svg t="1609572080769" width="13px" height="13px" class="icon" viewBox="0 0 1024 1024" version="1.1" xmlns="http://www.w3.org/2000/svg" p-id="4278" width="200" height="200"><path d="M553.13 98.512l87.565 73.476c13.538 11.36 15.304 31.545 3.944 45.083l-7.713 9.192c-11.36 13.539-31.544 15.305-45.083 3.945L548 193.419v282.58h282.58l-36.79-43.844c-11.36-13.538-9.593-33.722 3.945-45.082l9.193-7.714c13.538-11.36 33.722-9.594 45.082 3.944l73.47 87.558c19.964 23.792 19.964 58.484 0 82.276l-73.47 87.558c-11.246 13.403-31.141 15.268-44.674 4.281l-0.408-0.337-9.193-7.713c-13.538-11.36-15.304-31.544-3.944-45.083L830.58 548H548v282.58l43.843-36.788c13.539-11.36 33.723-9.594 45.083 3.944l7.713 9.193c11.247 13.403 9.628 33.32-3.541 44.739l-0.403 0.343-87.558 73.47c-23.792 19.964-58.484 19.964-82.276 0l-87.558-73.47c-13.538-11.36-15.304-31.544-3.944-45.082l7.714-9.193c11.246-13.403 31.141-15.268 44.674-4.281l0.408 0.337L476 830.58V547.999H193.418l36.79 43.844c11.246 13.403 9.628 33.32-3.542 44.74l-0.403 0.343-9.192 7.713c-13.403 11.247-33.32 9.628-44.74-3.541l-0.343-0.403-73.469-87.558c-19.964-23.792-19.964-58.484 0-82.276l73.47-87.558c11.36-13.538 31.544-15.304 45.082-3.944l9.192 7.714c13.404 11.246 15.269 31.14 4.282 44.674l-0.338 0.408-36.79 43.844H476V193.366l-43.905 36.841c-13.403 11.247-33.32 9.63-44.739-3.54l-0.343-0.404-7.714-9.192c-11.251-13.4-9.633-33.316 3.537-44.735l0.403-0.344c0.001-0.001 0.003-0.002 0.008 0.001l87.616-73.489c23.792-19.956 58.478-19.953 82.267 0.008z" p-id="4279"></path></svg>