<svg t="1609918527761"  width="12" height="12" viewBox="0 0 1024 1024" version="1.1" xmlns="http://www.w3.org/2000/svg" p-id="21866" xmlns:xlink="http://www.w3.org/1999/xlink" width="200" height="200"><defs><style type="text/css"></style></defs><path d="M112 128a48 48 0 0 1 48 48v672a48 48 0 1 1-96 0V176A48 48 0 0 1 112 128z m531.84 64l274.816 274.752a64 64 0 0 1 0 90.496L643.84 832A48 48 0 0 1 576 764.16l204.096-204.16H304a48 48 0 0 1 0-96h476.096L576 259.84A48 48 0 0 1 643.84 192z" p-id="21867"></path></svg>