<svg t="1610090886626" width="19" height="19" viewBox="0 0 1024 1024" version="1.1" xmlns="http://www.w3.org/2000/svg" p-id="13001" xmlns:xlink="http://www.w3.org/1999/xlink" width="200" height="200"><defs><style type="text/css"></style></defs><path d="M901.468 293.002H133.591v-101.74a46.203 46.203 0 0 1 46.193-46.192H855.27a46.203 46.203 0 0 1 46.193 46.193l0.005 101.74z m-72.371 580.429H203.863c-37.187 0-67.435-30.06-67.435-67V353.905h760.104v452.53c0 36.937-30.254 66.996-67.435 66.996z m-643.313-470.17v403.17c0 9.728 8.11 17.643 18.079 17.643h625.234c9.969 0 18.074-7.915 18.074-17.643V403.26H185.784z" p-id="13002"></path></svg>