<svg t="1609595672468" width="18" height="18" style="margin-top: 2px;" viewBox="0 0 1024 1024" version="1.1" xmlns="http://www.w3.org/2000/svg" p-id="7882" width="200" height="200">
  <path d="M324.8 796.8v-108.8c0-9.6-9.6-19.2-19.2-19.2H126.4c-9.6 0-19.2 9.6-19.2 19.2v108.8c0 9.6 9.6 19.2 19.2 19.2h182.4c9.6-3.2 16-9.6 16-19.2z m0-220.8v-108.8c0-9.6-9.6-19.2-19.2-19.2H126.4c-9.6 0-19.2 9.6-19.2 19.2V576c0 9.6 9.6 19.2 19.2 19.2h182.4c9.6 0 16-9.6 16-19.2z m294.4 220.8v-108.8c0-9.6-9.6-19.2-19.2-19.2H417.6c-9.6 0-19.2 9.6-19.2 19.2v108.8c0 9.6 9.6 19.2 19.2 19.2h182.4c9.6-3.2 19.2-9.6 19.2-19.2zM324.8 355.2V246.4c0-9.6-9.6-19.2-19.2-19.2H126.4c-9.6 0-19.2 9.6-19.2 19.2v108.8c0 9.6 9.6 19.2 19.2 19.2h182.4c9.6 0 16-6.4 16-19.2z m294.4 220.8v-108.8c0-9.6-9.6-19.2-19.2-19.2H417.6c-9.6 0-19.2 9.6-19.2 19.2V576c0 9.6 9.6 19.2 19.2 19.2h182.4c9.6 0 19.2-9.6 19.2-19.2z m291.2 220.8v-108.8c0-9.6-9.6-19.2-19.2-19.2h-182.4c-9.6 0-19.2 9.6-19.2 19.2v108.8c0 9.6 9.6 19.2 19.2 19.2h182.4c12.8-3.2 19.2-9.6 19.2-19.2z m-291.2-441.6V246.4c0-9.6-9.6-19.2-19.2-19.2H417.6c-9.6 0-19.2 9.6-19.2 19.2v108.8c0 9.6 9.6 19.2 19.2 19.2h182.4c9.6 0 19.2-6.4 19.2-19.2z m291.2 220.8v-108.8c0-9.6-9.6-19.2-19.2-19.2h-182.4c-9.6 0-19.2 9.6-19.2 19.2V576c0 9.6 9.6 19.2 19.2 19.2h182.4c12.8 0 19.2-9.6 19.2-19.2z m0-220.8V246.4c0-9.6-9.6-19.2-19.2-19.2h-182.4c-9.6 0-19.2 9.6-19.2 19.2v108.8c0 9.6 9.6 19.2 19.2 19.2h182.4c12.8 0 19.2-6.4 19.2-19.2z m73.6-182.4v620.8c0 51.2-41.6 92.8-92.8 92.8h-768c-51.2 0-92.8-41.6-92.8-92.8V172.8c0-51.2 41.6-92.8 92.8-92.8h768c51.2 3.2 92.8 44.8 92.8 92.8z" p-id="7883"></path>
</svg>