<svg t="1607925093099" class="icon" width="20" height="20" viewBox="0 0 1024 1024" version="1.1" xmlns="http://www.w3.org/2000/svg" p-id="10233" xmlns:xlink="http://www.w3.org/1999/xlink"><defs><style type="text/css"></style></defs><path d="M288 810.666667h448a32 32 0 0 1 4.352 63.701333l-4.352 0.298667H288a32 32 0 0 1-4.352-63.701334L288 810.666667h448-448z m448-640a32 32 0 0 1 31.701333 27.648L768 202.666667v256c0 187.477333-88.021333 288-256.128 288-164.48 0-252.16-96.213333-255.744-275.882667L256 458.666667v-256a32 32 0 0 1 63.701333-4.352l0.298667 4.352v256C319.829333 612.608 381.141333 682.666667 511.872 682.666667c127.36 0 188.928-66.56 192-212.309334l0.128-11.690666v-256a32 32 0 0 1 32-32z" p-id="10234"></path></svg>